<?xml version="1.0" standalone="no"?>
<!DOCTYPE svg PUBLIC "-//W3C//DTD SVG 20010904//EN"
 "http://www.w3.org/TR/2001/REC-SVG-20010904/DTD/svg10.dtd">
<svg version="1.0" xmlns="http://www.w3.org/2000/svg"
 width="626.000000pt" height="626.000000pt" viewBox="0 0 626.000000 626.000000"
 preserveAspectRatio="xMidYMid meet">
<metadata>
Created by potrace 1.15, written by Peter Selinger 2001-2017
</metadata>
<g transform="translate(0.000000,626.000000) scale(0.100000,-0.100000)"
fill="#000000" stroke="none">
<path d="M1885 5958 c7 -47 6 -50 -11 -43 -11 4 -45 15 -77 25 -57 18 -57 18
-72 -3 -8 -12 -15 -27 -15 -35 0 -17 -29 -72 -38 -72 -4 0 -18 19 -30 41 l-24
41 -34 -51 c-19 -28 -39 -63 -45 -77 -9 -26 -10 -26 -23 -8 -12 15 -16 16 -30
5 -20 -17 -46 -103 -46 -153 0 -34 -3 -38 -25 -38 -13 0 -43 7 -65 16 -23 9
-43 14 -46 11 -3 -3 4 -24 16 -47 12 -23 19 -44 17 -47 -3 -2 -21 -5 -41 -6
-20 -1 -36 -6 -36 -12 0 -5 11 -34 25 -63 30 -65 30 -62 6 -62 -11 0 -22 -4
-25 -9 -9 -14 -204 -34 -282 -28 -72 5 -152 33 -186 64 -14 12 -21 14 -30 5
-8 -8 -2 -24 22 -62 34 -53 84 -99 211 -193 139 -103 201 -192 240 -345 26
-103 24 -162 -11 -307 -44 -187 -69 -235 -120 -235 -44 0 -127 73 -144 128 -4
12 -14 22 -22 22 -55 0 81 -201 167 -246 72 -37 254 -74 363 -74 195 1 460 92
683 236 124 80 184 108 275 128 26 6 27 5 22 -26 -9 -45 -24 -68 -94 -136 -54
-52 -67 -76 -61 -114 0 -4 -17 -12 -39 -18 -22 -5 -59 -15 -82 -21 -100 -26
-198 -101 -198 -152 0 -13 -20 -41 -50 -70 -61 -59 -66 -90 -17 -106 36 -12
43 -11 125 25 60 27 137 34 112 10 -8 -8 -50 -29 -93 -46 -102 -42 -120 -68
-114 -161 9 -137 88 -188 118 -75 29 108 53 133 156 164 86 27 108 42 137 100
35 67 69 109 116 144 39 29 42 30 60 13 47 -43 34 -80 -46 -131 -65 -41 -83
-72 -67 -114 10 -26 9 -29 -19 -41 -36 -15 -48 -37 -48 -88 0 -33 5 -44 26
-58 26 -16 27 -16 45 6 11 13 19 29 19 37 0 45 147 106 211 88 18 -5 41 -22
53 -37 l20 -28 -73 -68 c-63 -58 -73 -73 -69 -95 4 -19 0 -27 -13 -31 -29 -9
-42 -40 -24 -55 12 -10 35 -10 110 0 75 11 105 11 149 1 77 -17 106 -42 106
-92 0 -21 -3 -39 -6 -39 -3 0 -26 18 -51 40 -73 64 -100 68 -268 42 -67 -11
-100 -30 -165 -96 -30 -31 -57 -56 -61 -56 -7 0 -35 96 -44 155 -11 72 -16 74
-90 37 -36 -17 -69 -32 -74 -32 -5 0 -19 25 -31 55 -12 30 -28 55 -34 55 -6 0
-27 -13 -46 -28 l-34 -29 -55 39 c-69 49 -84 49 -79 3 l4 -35 -31 30 c-28 27
-72 48 -139 64 l-28 7 7 -61 c4 -33 4 -60 1 -60 -4 0 -17 7 -30 15 -17 11
-142 65 -151 65 -1 0 -18 -34 -39 -75 -21 -41 -42 -75 -47 -75 -5 0 -21 24
-36 54 l-26 54 -45 -56 c-24 -32 -51 -72 -60 -89 l-16 -33 -16 25 -16 25 -27
-28 c-30 -32 -54 -92 -63 -162 -8 -59 -11 -60 -100 -24 -36 14 -67 24 -70 21
-2 -2 5 -25 16 -51 11 -27 18 -52 14 -57 -3 -5 -25 -9 -50 -9 -24 0 -44 -4
-44 -8 0 -5 11 -42 25 -82 14 -40 25 -75 25 -77 0 -2 -16 -3 -35 -3 l-35 0 77
-100 c73 -96 101 -126 168 -178 29 -23 29 -23 5 -17 -14 3 -33 9 -42 12 -53
16 21 -100 108 -170 138 -112 233 -128 369 -63 88 41 192 134 220 197 10 22
21 38 24 36 81 -45 108 -52 206 -52 117 1 178 20 264 86 58 44 74 45 43 2 -55
-79 -112 -237 -112 -314 0 -20 -22 -111 -49 -202 -28 -91 -53 -182 -57 -202
-8 -44 -23 -51 -63 -31 -43 23 -59 60 -86 202 -24 124 -34 154 -63 187 -14 16
-58 25 -50 10 48 -94 49 -96 46 -260 -3 -150 -2 -160 20 -199 28 -48 71 -76
127 -84 39 -5 40 -6 37 -40 -7 -67 -59 -100 -175 -108 -85 -5 -128 -28 -143
-75 -3 -12 -13 -30 -21 -39 -26 -29 -18 -83 21 -149 49 -81 51 -96 27 -173
-26 -84 -17 -122 27 -111 55 14 82 62 82 145 0 74 21 115 71 141 62 31 133 23
171 -20 15 -17 28 -39 28 -49 0 -9 -29 -44 -65 -77 -59 -55 -65 -64 -65 -100
1 -80 51 -149 129 -176 32 -11 35 -17 75 -169 9 -33 26 -66 41 -80 24 -23 28
-24 53 -9 31 17 53 58 79 144 17 56 20 60 51 63 26 3 44 -5 86 -37 75 -58 116
-52 116 15 0 25 -12 45 -51 88 -44 48 -48 57 -32 62 10 3 41 15 68 26 28 10
71 22 97 25 44 5 50 3 84 -31 31 -31 35 -41 30 -69 -26 -136 -19 -153 96 -232
136 -94 182 -111 208 -80 18 21 7 61 -34 129 -28 46 -36 71 -36 106 0 74 12
83 116 84 115 1 182 -21 379 -124 163 -85 233 -110 307 -110 71 0 112 21 143
73 14 25 41 57 59 70 l33 26 17 -40 c34 -75 131 -129 236 -129 55 0 156 25
189 47 15 9 26 12 28 6 20 -59 119 -134 208 -158 56 -16 76 -16 156 -6 51 7
100 16 110 21 10 6 31 10 48 10 44 0 38 16 -14 39 -25 11 -45 22 -45 24 0 2
28 21 63 41 34 20 78 51 98 69 39 35 109 123 109 138 0 5 -18 12 -40 15 -22 4
-40 12 -40 19 0 6 11 44 25 83 31 89 31 92 -2 92 -16 0 -44 3 -64 6 l-35 6 6
49 6 49 -41 0 c-41 0 -42 1 -64 55 -24 59 -36 67 -46 35 -9 -30 -22 -24 -29
13 -6 30 -70 107 -80 96 -2 -2 -11 -20 -21 -39 -16 -32 -19 -33 -29 -16 -6 10
-21 31 -33 46 -27 33 -28 40 -8 40 28 0 111 32 143 57 20 15 32 33 32 48 0 37
-28 46 -93 33 -89 -19 -127 11 -127 97 0 50 9 65 39 65 20 0 39 -13 68 -45 33
-37 47 -45 75 -45 84 0 178 56 178 105 0 36 -23 41 -86 16 -31 -11 -59 -21
-63 -21 -12 0 -101 70 -101 79 0 5 21 14 47 22 40 11 65 31 151 117 77 77 102
109 100 125 -5 39 -58 34 -143 -12 -43 -24 -87 -41 -106 -41 -17 0 -66 16
-108 35 -42 19 -118 45 -169 59 -50 13 -104 32 -120 41 -16 10 -53 53 -82 97
-56 83 -110 136 -167 163 -19 9 -33 20 -31 23 88 167 103 257 114 697 6 264 5
285 -15 368 -11 49 -21 92 -21 96 0 5 40 10 88 13 186 11 295 98 377 302 38
94 62 136 76 136 16 0 10 -27 -21 -92 -35 -74 -37 -105 -10 -182 23 -69 21
-76 -56 -158 -30 -31 -54 -63 -54 -71 0 -8 -21 -22 -46 -32 -57 -22 -51 -29
12 -14 167 40 330 192 427 400 41 85 71 119 89 101 9 -9 6 -25 -11 -68 -19
-44 -23 -68 -19 -112 3 -32 3 -62 1 -69 -2 -7 -26 -27 -52 -46 -29 -21 -52
-48 -60 -68 -38 -101 -30 -94 -186 -164 -44 -20 -95 -50 -112 -67 -68 -65 -25
-138 72 -124 54 9 126 54 144 92 25 49 61 94 77 94 29 0 10 -62 -36 -118 -39
-48 -38 -83 4 -152 19 -31 37 -67 41 -81 10 -41 -25 -73 -118 -109 -146 -56
-257 -73 -335 -51 -17 5 -32 6 -32 1 0 -15 62 -30 124 -30 50 0 63 -4 74 -20
42 -67 216 -88 322 -39 30 14 75 43 100 63 57 49 69 27 13 -25 -22 -20 -52
-57 -66 -82 -68 -116 -151 -149 -272 -107 -105 36 -160 23 -153 -37 4 -38 42
-54 146 -64 93 -8 113 -18 91 -45 -11 -14 -26 -16 -87 -10 -120 10 -154 -27
-53 -56 65 -19 108 -57 128 -110 18 -50 16 -149 -3 -177 -16 -22 -17 -21 -48
58 -68 168 -145 221 -320 221 -125 0 -124 -17 1 -22 70 -3 122 -11 148 -22 77
-33 131 -104 170 -224 20 -60 37 -66 65 -19 23 37 27 118 8 180 -17 56 -73
112 -128 128 -76 21 -72 32 11 25 43 -4 87 -2 102 3 28 11 45 47 28 64 -6 6
-56 16 -113 23 -84 10 -105 16 -120 33 -19 24 -15 48 11 56 17 5 44 -2 116
-29 114 -43 226 5 292 125 14 26 38 56 54 68 40 29 64 78 49 97 -14 16 -37 7
-88 -37 -51 -45 -127 -79 -191 -85 -79 -9 -120 0 -172 38 l-42 31 100 32 c120
40 179 68 193 94 19 37 11 84 -25 144 -19 32 -35 67 -35 78 0 11 16 42 35 71
51 74 60 129 22 136 -29 6 -65 -25 -92 -78 -27 -54 -82 -93 -146 -105 -73 -14
-105 37 -53 86 14 13 80 51 147 84 l122 60 25 63 c20 50 35 70 71 97 56 40 61
53 53 125 -5 46 -2 66 15 105 25 56 27 88 7 104 -31 26 -82 -25 -126 -124 -37
-83 -152 -238 -212 -287 -38 -31 -118 -78 -133 -78 -16 0 2 28 55 85 66 71 73
95 45 162 -23 55 -19 106 15 173 32 64 38 107 16 116 -29 11 -55 -17 -86 -93
-62 -151 -79 -183 -127 -234 -65 -70 -143 -108 -246 -119 -45 -6 -87 -10 -94
-10 -7 0 -14 21 -18 48 -3 26 -8 57 -10 68 -4 18 1 22 35 27 55 7 116 40 168
90 54 53 78 91 91 145 17 80 -10 131 -122 224 l-59 49 -89 -5 c-50 -3 -94 -8
-99 -11 -5 -3 -14 -24 -20 -46 -6 -21 -20 -60 -31 -86 l-20 -46 -50 74 c-61
89 -105 143 -181 225 -32 34 -58 67 -58 74 0 24 71 109 117 139 54 36 115 55
145 45 12 -3 52 -35 90 -71 89 -83 104 -82 137 7 13 36 24 79 25 95 1 26 -5
33 -42 51 -28 13 -49 32 -60 55 -16 31 -23 35 -81 45 -86 16 -110 51 -80 118
15 32 117 78 185 84 44 4 60 -1 119 -32 53 -28 71 -33 86 -25 32 17 22 54 -31
118 -91 109 -122 118 -260 70 -82 -28 -109 -32 -200 -33 -90 -1 -110 2 -140
20 -30 18 -35 26 -32 53 4 49 38 109 73 127 38 19 68 13 130 -27 65 -41 106
-54 124 -39 34 28 8 70 -56 91 -19 7 -51 27 -71 45 -71 63 -167 60 -301 -10
-105 -55 -171 -69 -258 -55 -85 14 -114 5 -175 -53 -64 -61 -76 -59 -150 20
l-52 56 -69 0 c-44 1 -76 6 -86 15 -24 19 -22 76 4 102 22 22 47 22 148 3 23
-5 36 -2 41 7 11 18 -7 49 -28 49 -10 0 -39 18 -66 40 -28 23 -59 40 -73 40
-39 0 -77 -34 -111 -98 -39 -74 -55 -87 -102 -87 -55 0 -80 27 -80 83 0 37 5
48 31 71 85 72 93 81 77 97 -13 13 -25 14 -79 4 -68 -12 -103 -36 -113 -76 -5
-19 -67 -64 -89 -64 -2 0 5 30 14 68 19 73 25 217 9 227 -6 3 -24 -4 -41 -16
-17 -12 -34 -18 -39 -13 -4 5 -19 41 -33 79 -14 39 -28 77 -32 86 -5 15 -13
12 -58 -17 -28 -19 -55 -34 -59 -34 -4 0 -15 15 -24 33 -29 58 -33 59 -70 30
l-35 -26 -48 27 c-27 14 -51 26 -55 26 -3 0 -6 -14 -6 -32 l0 -31 -24 22 c-14
13 -50 29 -81 36 l-57 14 7 -51z m313 -78 c76 -80 110 -186 78 -248 -18 -35
-36 -42 -36 -14 0 54 -113 222 -160 237 -17 5 -20 15 -20 61 l0 54 50 -25 c27
-14 67 -43 88 -65z m175 -48 c-4 -72 -11 -110 -24 -132 -22 -36 -39 -39 -39
-6 0 32 -25 101 -50 136 -16 23 -17 30 -6 39 18 15 120 71 123 67 1 -1 0 -48
-4 -104z m-518 69 c22 -13 31 -26 33 -50 l3 -34 -51 5 c-42 4 -52 2 -61 -13
-5 -10 -19 -24 -30 -30 -18 -9 -25 -7 -42 9 -14 15 -17 25 -10 34 5 7 18 35
27 61 l18 48 42 -6 c22 -4 55 -15 71 -24z m220 -70 c52 -35 111 -114 131 -175
24 -71 15 -130 -27 -171 -19 -18 -43 -36 -54 -39 -19 -5 -20 -2 -17 64 4 83
-23 155 -82 212 -33 32 -36 40 -36 92 0 55 1 57 23 51 12 -4 40 -19 62 -34z
m-150 -65 c104 -47 171 -152 163 -257 -4 -51 -9 -64 -38 -94 -19 -19 -38 -35
-42 -35 -4 0 -8 27 -8 60 0 103 -44 206 -133 314 -37 44 -39 48 -17 41 14 -4
48 -17 75 -29z m601 -8 c-17 -115 -150 -308 -212 -308 -64 0 -123 27 -95 44 5
3 12 18 15 32 7 28 34 60 106 129 52 51 171 144 184 144 5 1 6 -18 2 -41z
m-658 -42 c73 -91 103 -165 110 -269 4 -65 2 -81 -13 -97 -23 -26 -45 -25
-125 4 -85 31 -122 78 -128 164 -4 51 1 73 38 165 24 59 46 107 51 107 4 0 34
-33 67 -74z m-353 25 c3 -10 18 -32 33 -47 25 -28 26 -32 23 -127 -3 -84 0
-102 18 -132 l20 -35 -24 0 c-29 0 -80 42 -102 84 -20 38 -24 207 -6 249 15
32 29 35 38 8z m148 -63 c36 -36 42 -47 36 -68 -14 -50 -9 -134 11 -179 l20
-44 -42 7 c-73 12 -102 56 -101 156 0 55 20 170 30 170 1 0 22 -19 46 -42z
m1107 -28 c0 -5 -9 -17 -19 -26 -81 -69 -77 -61 -84 -173 -4 -70 -3 -109 5
-118 18 -22 29 -14 14 10 -10 15 -13 35 -10 59 l6 36 32 -19 c65 -40 125 -13
169 73 53 104 92 119 160 60 25 -22 57 -42 71 -46 14 -3 26 -14 26 -22 0 -11
-5 -14 -17 -9 -40 16 -100 26 -129 20 -46 -8 -69 -39 -69 -92 0 -60 19 -73
109 -73 l71 0 68 -66 c37 -36 67 -67 67 -69 0 -1 -18 -14 -40 -29 -23 -15 -51
-38 -62 -51 -18 -21 -31 -25 -73 -25 -71 0 -214 -26 -308 -55 -43 -14 -80 -25
-83 -25 -2 0 -4 11 -4 25 0 50 -31 104 -81 141 -27 20 -56 45 -64 57 -8 12
-15 19 -15 15 0 -21 17 -41 61 -72 52 -38 73 -70 84 -129 7 -34 5 -37 -21 -48
-16 -6 -41 -13 -56 -16 -27 -5 -28 -4 -28 36 0 48 -19 99 -46 123 -11 9 -45
26 -76 38 -65 24 -79 38 -52 53 27 14 178 167 194 197 8 14 15 39 16 57 2 17
16 58 33 92 28 54 34 61 68 66 21 4 45 8 53 10 28 5 30 5 30 -5z m-505 -211
c22 -4 90 -8 150 -9 l110 -1 -35 -29 c-19 -17 -69 -47 -110 -68 -71 -35 -79
-37 -170 -36 -76 0 -105 5 -144 22 l-50 22 33 34 c18 19 47 37 65 40 17 4 42
15 56 26 14 11 32 17 40 14 8 -4 33 -10 55 -15z m1699 -30 c22 -6 56 -24 75
-39 20 -16 55 -36 78 -45 40 -16 59 -38 47 -56 -10 -17 -37 -9 -96 31 -81 54
-134 56 -183 7 -19 -19 -38 -52 -45 -77 -7 -25 -20 -73 -30 -107 -18 -65 -12
-77 10 -21 8 18 15 34 16 36 1 2 17 -4 36 -14 24 -13 64 -19 143 -22 104 -4
115 -2 193 27 93 34 146 39 180 15 25 -17 113 -108 125 -129 11 -20 -2 -45
-24 -45 -10 0 -39 15 -65 33 -40 28 -53 32 -107 31 -170 -2 -436 -216 -523
-421 -15 -35 -30 -63 -33 -63 -4 0 -28 22 -54 48 l-47 48 51 74 c74 109 139
180 209 230 33 25 56 46 50 48 -31 11 -183 -133 -273 -260 l-54 -76 -26 23
c-14 13 -35 43 -47 67 -63 127 -196 258 -298 294 l-49 18 49 33 c26 18 70 48
98 67 33 23 66 36 102 41 74 9 158 34 158 46 0 6 -4 8 -9 5 -5 -4 -51 -15
-103 -25 -122 -26 -143 -34 -203 -85 -80 -69 -95 -76 -142 -69 -24 3 -43 10
-43 14 0 5 35 34 78 66 42 31 98 76 124 99 56 52 82 60 156 45 80 -16 158 0
252 52 64 35 140 64 175 66 6 1 28 -4 49 -10z m-2159 -71 c153 -54 313 -158
452 -291 54 -52 109 -99 121 -106 l23 -12 -33 -37 c-18 -20 -56 -60 -84 -90
l-52 -53 29 -29 c16 -15 29 -25 29 -21 0 4 -9 16 -21 27 l-21 19 22 17 c12 10
27 15 33 11 5 -3 7 -1 4 4 -6 10 28 64 45 71 5 2 8 10 8 17 0 14 49 50 65 48
6 -1 35 -4 66 -8 44 -5 59 -11 68 -28 6 -12 10 -14 7 -5 -5 16 12 28 38 28 7
0 17 -12 24 -27 8 -20 10 -21 6 -5 -5 20 -2 22 24 20 l29 -2 -31 -45 c-17 -26
-37 -51 -44 -57 -13 -9 -13 -12 1 -17 11 -4 17 2 22 21 5 20 8 23 16 11 7 -11
9 -9 9 9 0 12 9 30 20 39 11 10 20 23 20 30 0 24 30 13 41 -14 7 -20 7 -34 -2
-50 -16 -29 -27 -29 -39 0 -6 15 -9 17 -9 6 -1 -9 6 -22 14 -29 12 -10 13 -16
4 -27 -10 -11 -15 -11 -32 4 -19 18 -20 17 -8 -5 10 -18 10 -27 0 -38 -16 -20
-28 -17 -39 9 -6 16 -9 17 -9 5 -1 -9 4 -20 9 -23 7 -4 6 -13 -1 -26 -10 -20
-11 -20 -24 -2 -8 10 -15 26 -15 36 0 10 -4 15 -10 12 -6 -4 -5 -16 5 -34 9
-18 12 -42 8 -65 -6 -41 -21 -42 -40 -5 -9 16 -13 19 -13 8 0 -9 6 -22 14 -28
11 -10 11 -17 0 -49 -7 -20 -18 -36 -25 -34 -9 2 -9 -1 1 -12 11 -14 8 -16
-19 -16 -28 0 -31 3 -31 29 0 16 3 37 7 47 6 16 7 16 14 -2 6 -14 8 -10 8 16
1 20 8 45 16 58 14 20 14 25 -4 59 -11 21 -20 34 -21 30 0 -4 6 -20 14 -35 12
-24 12 -30 0 -47 -13 -17 -16 -18 -24 -5 -5 8 -10 21 -10 29 0 8 -3 11 -6 8
-4 -4 -1 -20 6 -37 15 -36 4 -53 -16 -26 -18 26 -18 64 1 82 8 9 15 20 15 26
0 6 -10 -1 -21 -16 -24 -31 -21 -86 6 -116 9 -10 12 -21 7 -24 -10 -6 -47 30
-54 54 -3 8 -1 24 5 35 9 18 9 19 -7 6 -14 -12 -19 -11 -39 5 -22 19 -22 19
-5 -1 11 -13 15 -30 11 -45 -5 -24 -5 -25 10 -5 12 14 16 16 17 6 0 -8 10 -25
21 -37 23 -24 20 -54 -5 -54 -9 0 -22 12 -30 28 -8 15 -15 23 -16 18 0 -16
-40 26 -40 43 -1 13 -2 13 -11 -2 -6 -11 -8 -37 -5 -60 10 -64 9 -88 -3 -100
-8 -8 -11 13 -12 79 -1 49 -5 100 -9 114 -6 16 -8 -18 -7 -92 2 -114 1 -117
-21 -128 -13 -6 -73 -42 -134 -82 -301 -193 -602 -266 -856 -208 -98 22 -191
59 -211 84 -9 10 -2 13 33 12 24 -1 42 -4 39 -8 -11 -20 16 -5 41 21 17 18 25
34 21 42 -5 7 -4 10 1 7 5 -3 18 -2 29 3 19 7 18 8 -4 8 -18 1 -22 5 -16 19 3
9 20 69 36 132 49 190 39 341 -31 487 -40 82 -102 148 -213 229 -90 66 -177
141 -177 155 0 4 21 0 48 -9 70 -23 254 -18 442 12 207 33 381 31 485 -6z
m629 -26 c-91 -87 -214 -135 -290 -113 -72 21 -173 105 -152 126 2 2 33 -6 68
-19 134 -49 224 -43 350 23 41 21 77 39 80 40 3 0 -22 -26 -56 -57z m-66 -122
c20 -10 59 -29 85 -41 59 -26 73 -48 82 -121 l7 -56 -38 -11 c-50 -14 -84 -13
-110 2 -12 7 -70 58 -128 115 l-106 102 47 1 c27 0 64 7 83 14 19 7 36 14 38
14 2 1 20 -8 40 -19z m768 -141 c140 -19 237 -77 328 -196 62 -81 92 -133 135
-231 18 -40 46 -97 63 -125 77 -130 98 -184 113 -289 19 -131 19 -387 1 -498
-20 -123 -55 -215 -137 -358 -176 -310 -327 -503 -415 -532 -55 -18 -59 -8
-59 138 l0 127 -54 160 c-67 197 -78 295 -41 369 12 25 26 46 30 46 17 0 120
103 168 168 95 128 149 263 183 452 23 127 21 181 -13 290 -25 81 -56 143
-122 245 -62 94 -107 140 -179 177 -40 21 -45 27 -22 22 17 -3 51 -19 78 -35
60 -36 62 -28 1 10 -42 27 -43 30 -22 34 13 3 -13 5 -57 4 -44 -1 -105 3 -135
8 l-55 9 50 7 c28 3 58 7 67 7 9 1 52 -3 94 -9z m-61 -65 c61 -21 112 -52 146
-90 35 -38 64 -84 53 -84 -5 0 -74 18 -154 40 -204 57 -276 70 -382 71 -51 1
-120 4 -153 8 l-60 6 90 27 c50 15 106 32 125 37 55 16 276 6 335 -15z m1039
-143 c11 -18 69 -41 104 -41 43 0 52 -16 52 -96 0 -40 5 -76 10 -79 6 -4 10
12 10 39 0 50 4 53 55 32 40 -17 43 -29 15 -71 -11 -16 -20 -40 -20 -53 0 -30
-17 -62 -33 -62 -7 0 -37 25 -67 56 -30 30 -67 62 -82 70 -40 21 -92 17 -146
-10 -45 -23 -125 -99 -150 -141 -11 -19 -13 -18 -48 17 l-37 36 23 58 c42 103
161 243 270 317 l25 18 5 -38 c3 -21 9 -44 14 -52z m-1305 13 c14 -23 19 -44
15 -57 -6 -19 -5 -20 10 -5 9 9 21 29 27 45 l11 28 14 -28 c9 -16 12 -37 9
-50 l-7 -22 17 23 c15 20 15 24 1 38 -16 16 -22 54 -8 54 19 -1 32 -18 26 -36
-7 -19 -6 -19 8 0 12 15 22 17 54 12 51 -10 57 -15 42 -33 -11 -13 -13 -13
-19 4 -6 13 -7 10 -6 -12 0 -16 9 -44 18 -62 14 -25 15 -34 5 -42 -7 -6 -17
-7 -22 -3 -5 4 -6 3 -2 -2 8 -10 -9 -36 -24 -36 -5 0 -13 10 -18 23 -5 12 -9
15 -9 7 0 -8 4 -22 9 -30 6 -10 4 -20 -7 -32 -13 -15 -19 -16 -31 -5 -13 10
-15 9 -9 -5 4 -12 -1 -23 -16 -33 -12 -8 -18 -15 -14 -15 4 0 0 -11 -9 -26
-24 -36 -41 -16 -27 31 9 29 9 34 -1 26 -17 -14 -26 -4 -26 28 0 32 56 89 71
74 7 -7 4 -21 -9 -42 -13 -22 -22 -28 -25 -19 -4 10 -6 9 -6 -2 0 -8 6 -24 14
-34 14 -19 15 -18 15 10 0 35 19 72 20 39 1 -13 6 -7 17 18 8 20 21 37 28 37
7 0 19 7 26 16 12 14 14 14 20 -3 6 -14 8 -13 8 10 1 15 -8 36 -19 47 -22 22
-25 19 -10 -10 8 -15 3 -23 -26 -45 -37 -28 -52 -24 -55 15 0 10 -2 11 -6 2
-2 -6 -8 -10 -13 -7 -4 3 -7 -3 -6 -12 2 -26 -23 -27 -29 0 -4 13 -20 34 -36
46 -28 21 -41 17 -18 -6 14 -14 2 -56 -14 -50 -22 7 -39 55 -27 77 6 11 15 18
21 15 5 -4 9 3 9 14 0 12 -4 21 -9 21 -5 0 -11 9 -14 20 -4 16 0 20 18 20 16
0 30 -11 44 -36z m464 -109 c5 -16 16 -38 24 -47 9 -10 12 -25 8 -37 -8 -26
-21 -27 -34 -3 -6 9 -11 13 -11 9 0 -4 7 -19 16 -32 l16 -25 19 38 c12 22 15
38 9 40 -13 5 -40 56 -40 77 0 25 38 0 46 -30 3 -14 10 -25 14 -25 4 0 13 -13
20 -30 13 -31 7 -65 -10 -55 -5 3 -8 0 -5 -7 7 -19 -21 -51 -37 -42 -7 4 -10
4 -6 -1 4 -4 3 -14 -4 -22 -8 -10 -8 -12 4 -8 19 7 31 -28 15 -44 -16 -16 -27
-13 -27 8 0 10 -7 22 -16 25 -8 3 -13 2 -10 -2 2 -4 -2 -16 -10 -27 -13 -17
-16 -18 -24 -5 -5 8 -10 10 -10 4 0 -6 6 -16 13 -22 10 -8 16 -6 26 10 12 19
14 20 23 5 6 -12 4 -24 -9 -42 -10 -13 -22 -25 -26 -25 -16 0 5 -20 21 -20 12
0 13 3 5 8 -10 6 -9 13 3 30 8 12 19 20 24 17 4 -3 11 5 15 18 6 19 8 20 12 4
4 -15 8 -12 22 15 9 18 22 32 29 31 7 -2 12 4 12 12 0 21 -13 19 -30 -5 -8
-11 -18 -20 -22 -20 -16 0 -7 51 12 70 11 11 20 25 20 30 0 6 5 10 10 10 9 0
11 -6 14 -42 1 -7 4 -15 7 -18 15 -13 26 -67 17 -85 -8 -13 -7 -16 1 -11 7 5
11 -3 11 -21 0 -21 -7 -32 -22 -39 -13 -6 -17 -9 -10 -7 14 3 14 2 3 -55 -7
-35 -6 -40 5 -31 8 6 11 15 8 20 -8 14 6 69 18 69 6 0 8 -11 4 -27 -3 -16 -8
-43 -10 -62 -5 -39 -27 -59 -38 -33 -5 13 -7 10 -7 -10 -1 -15 -5 -30 -11 -33
-5 -3 -10 -11 -10 -16 0 -6 11 3 24 18 28 32 40 28 30 -11 -4 -16 -15 -28 -30
-32 -12 -3 -31 -18 -40 -32 l-18 -27 33 28 c38 31 46 30 37 -8 -4 -17 -14 -25
-29 -26 -17 -1 -18 -2 -4 -6 20 -5 21 -10 6 -52 -7 -20 -16 -30 -24 -27 -8 2
-16 -2 -19 -11 -4 -11 -2 -14 9 -9 18 7 19 -2 0 -34 -13 -22 -21 -16 -16 13 1
4 -6 21 -14 37 -21 41 -19 59 10 66 14 3 25 10 25 15 0 13 -7 11 -35 -7 -22
-14 -24 -14 -34 4 -8 15 -7 23 4 32 8 7 15 23 15 35 0 12 7 28 15 35 8 7 15
22 15 34 0 12 7 32 16 44 8 12 11 22 6 22 -5 0 -15 -15 -21 -32 -7 -18 -19
-46 -27 -61 -8 -16 -14 -37 -14 -47 0 -28 -26 -31 -40 -5 -14 26 -7 43 24 55
21 9 21 9 -2 9 -19 1 -22 5 -17 24 5 17 4 19 -4 7 -6 -8 -11 -23 -11 -32 0
-21 -11 -23 -28 -6 -9 9 -7 17 11 37 12 13 16 21 8 16 -11 -6 -13 -3 -9 13 4
12 2 25 -3 28 -16 10 -9 36 11 41 11 3 20 9 20 15 0 5 -9 4 -20 -2 -21 -11
-40 -6 -40 11 0 6 -7 17 -15 25 -8 9 -15 12 -15 7 0 -5 5 -14 11 -20 8 -8 7
-17 -1 -34 -12 -22 -13 -22 -27 -3 -9 12 -13 33 -10 57 5 34 3 36 -10 25 -14
-11 -15 -9 -11 21 4 26 3 31 -6 19 -14 -18 -36 -12 -37 10 0 11 -2 13 -6 4 -3
-7 1 -19 8 -28 9 -11 9 -18 1 -26 -9 -9 -17 -7 -34 8 l-23 19 18 -21 c12 -15
16 -30 11 -48 -7 -29 -34 -36 -34 -8 0 11 -3 13 -8 5 -11 -17 -37 1 -26 18 6
12 5 12 -8 1 -18 -15 -28 1 -28 48 0 15 -7 33 -15 40 -13 11 -14 10 -9 -4 7
-18 -13 -49 -27 -40 -12 7 -11 55 1 74 9 13 10 13 10 0 1 -8 8 1 16 20 l16 35
12 -30 c8 -17 10 -34 5 -39 -12 -13 -11 -26 0 -26 5 0 14 14 20 31 6 17 19 33
30 36 11 3 22 12 26 21 5 13 9 10 20 -12 8 -16 15 -36 16 -45 0 -12 3 -10 9 5
10 25 40 40 40 20 0 -7 11 -38 24 -67 21 -46 25 -50 25 -26 1 15 -4 27 -10 27
-7 0 -9 12 -6 33 3 17 3 26 0 20 -9 -24 -23 -13 -23 17 0 19 7 33 20 40 11 6
20 17 20 25 0 33 20 22 31 -17 7 -24 17 -49 22 -55 5 -7 7 -20 3 -28 -3 -8 -1
-15 4 -15 6 0 10 8 10 18 0 10 11 28 25 40 14 12 25 28 25 34 0 10 -3 9 -9 -1
-7 -11 -11 -10 -20 5 -6 11 -11 14 -11 7 0 -6 5 -15 11 -18 7 -5 4 -13 -7 -26
-9 -10 -21 -16 -25 -13 -16 10 -9 61 11 84 27 31 34 63 21 88 -16 29 -14 44 6
40 9 -2 21 -16 26 -33z m-483 -305 c98 -24 220 -80 302 -140 86 -61 170 -192
193 -298 l7 -33 -89 8 c-123 11 -295 10 -315 -2 -13 -8 18 -10 110 -10 70 0
164 -2 210 -4 76 -4 82 -6 82 -26 0 -22 -49 -103 -75 -125 -9 -7 -44 -23 -80
-35 -84 -30 -193 -103 -241 -162 -64 -81 -62 -81 18 -2 57 57 97 87 158 118
98 49 129 54 85 13 -16 -15 -45 -38 -64 -51 -71 -50 -89 -161 -52 -316 19 -79
19 -79 -1 -110 -26 -37 -80 -95 -88 -95 -16 0 -29 53 -23 98 4 37 1 56 -12 75
-34 53 -146 73 -297 53 -91 -12 -89 4 5 48 40 19 83 47 97 62 28 31 25 29 -50
-21 -29 -19 -55 -33 -58 -31 -14 15 15 59 63 95 62 47 76 78 51 117 -23 34
-60 46 -127 42 -82 -6 -149 -43 -173 -95 -11 -24 -25 -43 -31 -43 -37 0 -48
77 -16 109 11 11 39 28 64 39 24 11 48 25 52 32 4 7 -4 4 -18 -5 -33 -21 -47
-13 -47 31 0 31 6 38 58 70 31 20 63 43 70 52 18 24 14 73 -9 98 l-20 21 41
17 c57 23 199 46 289 47 42 0 85 5 96 10 13 6 -26 8 -115 5 -267 -9 -414 -76
-489 -224 -39 -77 -66 -99 -146 -122 -110 -31 -121 -43 -156 -155 -21 -70 -38
-81 -63 -42 -26 40 -38 104 -26 145 13 49 39 72 122 106 91 38 106 49 89 70
-20 24 -65 20 -141 -14 -74 -33 -111 -37 -129 -16 -8 10 -4 22 17 52 42 57 60
71 68 50 12 -31 23 -16 22 29 -1 79 58 120 240 170 115 31 180 68 223 128 16
22 28 42 26 43 -2 2 -31 -23 -64 -56 -56 -53 -105 -81 -119 -67 -10 10 19 52
81 117 60 63 94 127 79 151 -11 19 216 4 316 -21z m1072 -37 c25 -22 23 -29
-12 -43 -17 -7 -35 -21 -40 -31 -17 -30 -11 -31 13 -3 29 33 82 42 96 15 6
-10 8 -21 4 -24 -3 -4 3 -10 13 -13 10 -4 25 -12 32 -18 11 -8 10 -11 -5 -17
-16 -7 -16 -8 0 -8 9 -1 17 -3 17 -6 0 -11 -44 -55 -55 -55 -6 0 -12 -7 -12
-15 0 -19 18 -8 52 33 49 58 60 5 12 -61 -43 -60 -90 -96 -124 -97 -30 0 -33
3 -33 30 0 28 3 30 36 30 25 0 33 -3 28 -12 -5 -8 0 -7 11 2 17 14 15 15 -31
20 -42 4 -49 8 -52 29 -2 13 2 28 10 32 11 7 11 9 -1 9 -19 0 5 29 34 40 15 7
16 9 4 9 -9 1 -22 -6 -29 -14 -18 -22 -30 -18 -30 10 0 13 8 29 18 35 15 10
15 11 0 6 -12 -3 -20 4 -27 26 -17 47 -13 65 15 87 32 25 33 25 56 4z m445
-172 c20 -6 35 -6 38 0 22 34 128 -26 190 -109 27 -34 35 -55 35 -85 0 -105
-121 -228 -239 -244 l-37 -5 -39 98 c-22 54 -39 102 -37 106 1 5 -3 8 -8 8 -6
0 -15 10 -21 23 -8 17 -5 34 14 77 14 30 28 70 31 87 4 18 15 37 24 43 9 5 17
10 17 10 0 0 15 -4 32 -9z m-254 -55 c3 -7 0 -20 -6 -27 -10 -11 -9 -11 4 -1
14 10 19 8 33 -12 9 -14 16 -29 16 -34 0 -12 -95 -103 -101 -97 -3 3 -6 -2 -6
-10 0 -11 11 -15 39 -15 21 0 38 -4 38 -10 0 -5 12 -10 28 -10 l27 1 -25 14
c-14 8 -41 14 -60 15 l-34 0 22 22 c15 16 34 23 62 23 49 0 77 -27 112 -106
24 -53 25 -56 7 -77 -9 -12 -22 -22 -27 -22 -5 0 -21 -10 -36 -21 l-27 -21
-27 23 c-21 19 -23 19 -9 3 17 -20 16 -21 -24 -33 -36 -11 -43 -10 -62 6 -22
18 -22 18 -4 -3 14 -17 15 -23 5 -27 -7 -3 -3 -6 9 -6 12 -1 27 -3 35 -4 7 -2
10 -2 6 0 -18 10 -6 22 26 28 39 8 96 -17 96 -40 0 -20 14 -19 34 4 19 21 53
33 60 22 3 -4 7 -19 10 -33 4 -22 1 -26 -17 -23 -12 1 -31 6 -42 10 l-20 7 20
-13 c11 -7 22 -16 25 -20 3 -4 14 -7 25 -6 16 2 21 -5 23 -34 4 -47 -18 -67
-43 -39 -10 11 -24 20 -32 20 -18 0 -16 10 5 33 14 15 10 15 -19 -4 l-36 -24
31 -8 c17 -4 38 -17 48 -28 9 -10 26 -19 37 -19 14 0 23 -8 27 -25 4 -14 4
-29 1 -32 -3 -3 0 -12 8 -20 23 -22 18 -34 -12 -27 -27 7 -74 35 -128 76 -16
12 -24 15 -17 6 11 -14 9 -17 -20 -23 -18 -4 -38 -11 -44 -16 -13 -10 -58 28
-86 73 -10 14 -26 29 -37 33 -24 7 -91 72 -83 80 3 3 19 5 36 5 31 0 70 -20
93 -47 9 -11 16 -12 32 -4 11 6 37 11 58 11 25 0 33 3 24 9 -8 5 -10 14 -6 22
5 8 4 11 0 6 -5 -4 -20 3 -34 15 -22 20 -23 20 -8 2 25 -31 21 -41 -20 -47
-28 -5 -43 -2 -58 11 -38 34 -73 43 -108 29 -18 -7 -45 -11 -61 -9 -27 3 -28
6 -22 40 3 20 6 49 6 65 0 18 5 27 16 27 9 0 27 9 41 20 14 11 41 20 59 20 18
0 36 5 39 10 4 7 -2 9 -17 6 -12 -3 -32 -6 -43 -8 -29 -3 -95 24 -95 39 0 29
84 45 108 21 10 -10 17 -7 34 10 12 12 20 22 16 22 -4 0 -13 -7 -21 -15 -12
-12 -20 -12 -41 -2 -25 12 -35 27 -17 27 5 0 22 14 38 30 15 17 35 30 43 31 8
0 4 5 -9 10 -13 5 -26 7 -29 4 -3 -3 1 -5 8 -5 9 0 8 -6 -5 -20 -10 -11 -30
-20 -44 -20 -17 0 -22 -3 -13 -8 15 -10 -10 -36 -45 -46 -20 -6 -22 -4 -20 36
2 33 7 44 22 47 18 3 18 2 2 -23 -10 -14 -13 -26 -7 -26 6 0 16 11 22 25 6 14
21 28 34 31 12 3 24 15 27 26 3 11 15 22 26 25 12 3 21 12 21 20 0 18 45 63
63 63 8 0 17 -6 20 -14z m-234 -559 c6 -8 8 -17 4 -20 -3 -4 1 -7 10 -7 8 0
17 5 19 11 4 13 79 23 112 15 14 -3 30 -15 36 -26 10 -18 8 -19 -19 -14 -15 3
-38 1 -51 -6 -17 -9 -25 -9 -39 4 -10 9 -22 16 -27 16 -5 0 0 -6 11 -12 19
-12 19 -12 -5 -19 l-25 -7 26 -1 c15 -1 39 -11 54 -23 l27 -21 -36 -15 c-33
-13 -39 -13 -54 1 -9 8 -36 21 -58 28 -39 12 -41 15 -33 39 6 14 17 31 26 38
10 7 12 12 5 12 -7 0 -12 5 -12 10 0 14 16 12 29 -3z m184 -58 c12 -6 30 -19
40 -27 18 -16 18 -17 0 -23 -12 -5 -7 -8 19 -8 46 -1 102 -44 78 -61 -13 -8
-12 -10 3 -10 24 0 77 -37 77 -54 0 -7 11 -18 25 -24 31 -14 32 -26 4 -38 -17
-8 -10 -10 32 -9 47 0 54 -3 57 -21 2 -11 -4 -27 -13 -34 -14 -11 -20 -12 -38
-1 -18 11 -20 11 -9 0 17 -18 15 -29 -5 -29 -10 0 -24 -4 -31 -9 -7 -4 12 -6
43 -3 51 4 55 3 55 -17 0 -12 -8 -25 -17 -28 -15 -6 -15 -7 3 -14 15 -6 12 -8
-13 -8 -19 -1 -47 9 -69 24 -20 14 -34 25 -30 25 13 0 -30 42 -58 57 l-30 15
25 14 c13 7 20 13 16 14 -5 0 -16 -4 -26 -10 -14 -7 -23 -5 -36 10 -10 11 -27
20 -37 20 -11 0 -16 5 -13 10 4 6 3 9 -2 8 -10 -3 -78 64 -75 75 3 10 -20 9
-36 -2 -10 -6 -8 -10 10 -14 25 -7 78 -53 78 -68 0 -5 -10 -9 -22 -9 -13 0
-30 -5 -38 -10 -11 -7 -25 0 -55 28 -28 26 -32 28 -12 6 15 -16 27 -35 27 -41
0 -7 9 -15 20 -18 11 -4 27 -20 35 -36 9 -16 22 -29 31 -29 9 0 29 -13 45 -30
l30 -30 37 20 c20 10 33 19 29 20 -4 0 -20 -6 -35 -14 -25 -13 -29 -12 -65 19
-37 32 -38 34 -18 44 26 14 84 14 115 0 30 -14 42 -39 24 -51 -9 -5 -7 -8 7
-8 11 0 36 -10 55 -21 l34 -21 -37 -20 c-21 -10 -43 -16 -49 -12 -6 4 -9 1 -6
-7 3 -8 21 -17 42 -20 20 -3 48 -17 62 -30 23 -21 24 -24 7 -31 -12 -6 -9 -7
10 -3 l27 5 0 -65 c0 -45 -4 -64 -11 -60 -6 4 -8 14 -5 22 3 8 1 11 -4 8 -5
-3 -27 6 -47 22 -31 22 -34 23 -19 5 l19 -22 -34 0 c-19 0 -45 -7 -57 -16 -20
-14 -25 -14 -52 3 -20 11 -28 23 -25 32 3 9 3 12 -1 8 -8 -7 -64 40 -64 54 0
3 20 12 45 19 l44 12 -40 34 c-23 19 -44 34 -47 34 -4 0 8 -12 26 -26 17 -14
32 -29 32 -33 0 -4 -17 -13 -37 -19 -33 -10 -40 -9 -67 12 -50 37 -64 41 -23
6 20 -17 35 -36 32 -41 -4 -5 2 -9 11 -9 18 0 54 -27 54 -42 0 -4 -10 -8 -22
-9 -18 -1 -17 -3 7 -8 17 -4 41 -13 54 -20 l23 -13 -42 -24 -42 -24 -30 23
c-40 29 -107 96 -137 137 -25 33 -76 61 -108 59 -10 -1 -1 -6 20 -11 20 -6 52
-24 70 -40 30 -29 31 -31 12 -39 -18 -7 -18 -8 -2 -8 11 -1 35 -17 55 -37 19
-19 48 -42 63 -50 16 -8 33 -23 39 -33 9 -17 6 -19 -28 -14 -25 3 -59 -3 -106
-21 -80 -30 -76 -30 -76 -13 0 7 -10 24 -22 37 -13 14 -23 28 -23 31 0 4 -3
11 -7 15 -5 4 -8 2 -8 -4 0 -6 -8 -13 -17 -15 -15 -4 -14 -5 3 -6 22 -1 57
-34 68 -65 4 -12 12 -16 24 -11 43 16 72 16 101 -1 16 -10 28 -21 26 -25 -3
-4 6 -10 20 -13 13 -3 35 -20 47 -36 12 -17 26 -30 30 -30 15 0 -35 59 -54 66
-10 3 -16 10 -12 15 3 5 2 9 -3 7 -10 -2 -73 35 -73 44 0 3 17 9 38 13 43 7
86 -6 100 -30 8 -16 11 -16 40 -1 17 9 44 17 59 17 24 2 25 2 5 6 -13 3 -37 0
-55 -6 -25 -9 -34 -8 -46 4 -15 15 -14 18 8 36 36 30 71 35 105 15 31 -18 31
-18 13 2 -18 20 -18 21 2 31 28 15 67 14 101 -4 39 -20 52 -48 44 -90 -8 -42
-30 -46 -74 -13 -25 18 -28 24 -17 37 11 14 10 15 -8 1 -11 -8 -22 -15 -23
-16 -2 -2 11 -10 29 -20 l34 -17 -50 -22 c-48 -21 -51 -21 -75 -5 -41 27 -57
33 -27 9 22 -17 25 -24 15 -30 -27 -18 30 -9 73 11 24 11 61 20 82 20 30 0 37
-4 37 -20 0 -13 -13 -25 -42 -38 -40 -18 -44 -18 -62 -3 -18 15 -18 15 -6 -6
9 -13 28 -23 52 -27 29 -5 38 -11 38 -26 0 -11 -7 -20 -15 -20 -9 0 -29 -7
-45 -15 -27 -14 -31 -13 -67 10 -21 14 -49 34 -63 45 -14 11 -28 20 -32 20
-14 0 40 -45 75 -64 21 -11 37 -25 37 -32 0 -7 18 -15 40 -19 62 -11 51 -41
-23 -65 -35 -11 -40 -10 -53 9 -9 12 -20 21 -26 21 -6 0 -4 -8 5 -18 10 -10
17 -23 17 -28 0 -6 16 -16 35 -23 31 -11 48 -31 26 -31 -4 0 -25 -11 -46 -25
-32 -23 -39 -24 -54 -12 -9 8 -23 17 -31 22 -8 4 -2 -4 15 -18 l29 -24 -31 -7
c-17 -4 -38 -15 -47 -25 -16 -18 -18 -17 -48 12 -28 29 -29 31 -12 44 10 7 22
13 28 13 5 0 7 3 3 6 -3 3 -19 -2 -36 -12 -30 -18 -31 -18 -54 4 -13 12 -27
22 -31 22 -5 0 4 -10 19 -22 l27 -21 -35 -19 c-20 -10 -39 -23 -43 -29 -3 -6
11 -1 33 12 28 16 47 20 66 15 29 -7 69 -57 51 -63 -6 -2 -20 -11 -30 -19 -16
-13 -15 -13 13 1 39 18 62 19 86 1 21 -16 21 -18 2 -61 l-14 -35 -37 25 c-20
14 -46 25 -58 24 -15 -1 -13 -3 10 -10 17 -5 38 -17 48 -28 16 -18 15 -19 -46
-24 -35 -3 -83 -3 -108 1 l-45 7 30 21 c17 12 42 24 56 27 15 4 30 14 33 23 5
13 3 14 -6 6 -16 -13 -87 48 -111 95 -10 18 -25 37 -34 42 -10 6 -15 11 -10
11 13 0 -21 58 -44 73 -20 14 -20 16 -2 27 14 9 14 10 1 6 -11 -3 -18 3 -23
22 -4 15 -13 34 -20 42 -7 8 -14 18 -15 22 -2 19 -14 44 -28 61 -8 9 -13 19
-10 22 9 9 73 -40 83 -63 5 -12 13 -22 18 -22 10 0 -18 53 -37 69 -9 8 -16 20
-16 28 0 23 -40 94 -50 88 -5 -3 -11 -1 -15 5 -3 5 -15 10 -27 10 -12 0 -22 8
-25 21 -3 12 -9 16 -12 10 -7 -10 -120 23 -131 39 -3 4 -15 12 -28 19 l-23 12
26 30 c14 17 25 35 25 40 0 36 41 -31 53 -86 4 -16 5 -15 6 5 0 14 -8 43 -19
65 -18 36 -19 40 -4 64 16 24 17 24 31 5 9 -10 22 -34 30 -53 8 -18 17 -31 20
-28 3 3 -2 19 -10 36 -14 27 -13 30 2 34 11 3 10 5 -5 6 -32 2 -48 25 -34 50
6 12 15 21 20 21 13 0 43 -47 45 -70 1 -9 9 -25 18 -34 9 -10 17 -22 17 -28 0
-6 3 -9 6 -6 3 4 1 16 -6 27 -9 18 -8 21 7 21 9 0 28 -10 41 -22 14 -13 22
-17 18 -10 -4 6 -2 12 4 12 16 0 60 -50 61 -69 0 -9 3 -11 5 -4 3 7 0 21 -6
32 -9 19 -8 21 14 21 29 0 91 -50 99 -80 5 -21 -7 -28 -18 -10 -3 6 -14 10
-23 9 -14 0 -14 -2 -2 -6 8 -3 28 -17 43 -32 l29 -26 -7 27 c-6 22 -2 29 22
43 27 15 19 15 -19 0 -11 -4 -18 -3 -18 5 0 6 -18 29 -40 51 -22 22 -40 46
-40 53 0 7 -11 23 -25 36 -16 15 -25 34 -25 53 0 16 -9 44 -19 61 -11 17 -25
50 -31 73 -7 23 -18 44 -25 46 -6 3 -3 -12 9 -36 12 -26 16 -42 9 -44 -6 -2 2
-17 18 -33 33 -33 42 -88 12 -75 -10 4 -30 10 -45 13 -16 2 -28 10 -28 17 0 6
-11 24 -25 39 -35 38 -32 50 13 43 33 -5 35 -4 12 6 -14 6 -26 12 -28 13 -8 5
61 114 73 114 16 0 65 -38 65 -51 0 -5 -8 -10 -17 -10 -15 -1 -14 -2 2 -6 11
-3 30 -15 43 -26 19 -17 22 -18 16 -4 -3 9 -11 17 -17 17 -6 0 -8 3 -4 6 8 8
-51 72 -74 79 -17 6 -17 8 3 43 30 52 45 83 58 116 9 24 14 27 38 21 34 -8 72
-32 72 -45 0 -6 8 -10 17 -10 9 0 30 -12 45 -27 15 -15 28 -22 28 -16 0 7 -12
21 -27 32 -30 24 -27 31 19 40 l33 7 -28 28 c-22 22 -26 31 -15 37 18 12 45
11 71 -2z m207 -45 c41 -17 50 -28 28 -37 -7 -3 6 -6 29 -6 31 -1 46 -7 57
-23 17 -24 13 -38 -12 -38 -9 0 -30 -7 -46 -15 -27 -14 -30 -14 -58 14 l-30
29 23 16 c27 18 18 22 -10 4 -16 -10 -25 -7 -54 18 -42 35 -44 41 -14 47 40 8
46 7 87 -9z m-2446 -58 c50 -21 106 -74 106 -102 0 -29 -13 -30 -56 -3 -40 24
-47 16 -42 -47 3 -42 2 -42 -59 -29 -19 5 -21 9 -13 31 6 14 10 57 10 95 0 41
4 69 10 69 6 0 25 -6 44 -14z m-116 -78 c29 -18 33 -25 30 -57 l-3 -36 -67 3
c-57 2 -67 0 -72 -16 -3 -10 -19 -23 -35 -29 -26 -9 -32 -8 -50 11 l-20 21 41
81 42 81 50 -19 c28 -11 66 -29 84 -40z m311 23 c74 -50 106 -88 148 -176 27
-56 33 -82 33 -132 0 -58 -3 -66 -33 -100 l-34 -36 -6 54 c-9 79 -75 205 -137
263 -28 26 -48 51 -46 55 3 4 6 31 7 59 2 29 4 52 6 52 2 0 30 -18 62 -39z
m-585 -72 c10 -22 31 -56 47 -73 l28 -33 -29 -28 c-32 -31 -42 -28 -60 15 -7
16 -16 30 -20 30 -5 0 -16 -21 -26 -46 l-17 -45 -25 24 c-18 19 -23 32 -18 50
7 28 84 147 95 147 4 0 15 -18 25 -41z m902 9 c-3 -13 -10 -59 -16 -103 -6
-44 -16 -94 -21 -112 -10 -31 -54 -83 -70 -83 -5 0 -9 26 -9 58 0 37 -9 78
-25 117 -14 33 -25 64 -25 68 0 9 138 77 157 77 9 0 12 -8 9 -22z m-412 -42
c64 -41 106 -93 148 -182 38 -81 43 -166 14 -226 -18 -37 -71 -80 -115 -93
-22 -7 -23 -6 -15 21 5 16 9 63 9 104 0 92 -22 153 -80 224 -32 39 -40 57 -34
71 4 11 8 41 8 68 1 26 3 47 6 47 3 0 30 -15 59 -34z m922 8 c43 -20 119 -104
129 -141 5 -21 1 -31 -17 -45 -30 -23 -38 -22 -38 2 0 53 -64 170 -93 170 -5
0 4 -14 21 -31 16 -17 35 -50 42 -73 28 -101 7 -153 -30 -74 -11 24 -43 67
-71 97 -51 52 -53 64 -14 74 12 4 9 5 -9 4 -16 -1 -31 -7 -33 -13 -2 -6 21
-41 52 -78 30 -37 55 -69 55 -71 0 -1 7 -18 15 -38 13 -32 13 -36 -5 -52 -18
-16 -19 -15 -39 31 -12 26 -24 45 -27 42 -3 -4 4 -25 16 -49 l22 -43 -33 -28
-34 -27 -40 44 c-42 45 -120 105 -139 105 -6 0 12 -15 40 -34 55 -37 126 -115
117 -129 -3 -4 -31 17 -63 48 -58 55 -166 115 -205 115 -11 -1 3 -9 32 -19 67
-23 154 -81 187 -124 14 -19 26 -36 26 -38 0 -3 -20 -22 -45 -43 l-46 -38 -82
41 c-46 23 -87 41 -92 41 -6 -1 21 -16 60 -36 99 -49 102 -53 63 -91 l-33 -32
-43 19 c-23 11 -40 16 -38 11 3 -5 19 -14 36 -21 29 -12 36 -21 25 -32 -3 -3
-26 6 -52 18 -25 13 -54 24 -62 23 -14 0 -14 -1 -1 -6 8 -3 35 -14 58 -24 l44
-19 -32 -40 c-23 -29 -37 -39 -49 -34 -9 3 -25 8 -36 10 -11 2 -7 -1 8 -7 29
-11 35 -47 6 -41 -61 15 -119 12 -176 -7 -34 -12 -64 -21 -66 -21 -10 0 13
112 32 153 11 25 21 55 21 66 0 35 20 74 60 118 23 24 40 53 40 66 0 16 37 59
125 147 68 68 135 130 148 137 14 7 46 14 72 17 25 2 49 7 52 10 13 12 106 5
139 -10z m-1568 -86 c10 -24 30 -54 44 -67 24 -23 25 -26 12 -69 -36 -117 -28
-212 23 -279 13 -18 20 -33 16 -33 -5 0 -33 15 -63 33 -37 21 -64 48 -85 81
-28 47 -30 55 -30 155 0 96 3 111 28 164 16 31 30 57 32 57 2 0 13 -19 23 -42z
m467 -139 c53 -103 74 -294 40 -359 -39 -76 -183 -40 -253 62 -76 113 -70 181
33 373 l57 107 50 -69 c28 -37 60 -89 73 -114z m-23 155 c89 -45 126 -74 162
-127 64 -96 80 -211 40 -288 -13 -27 -81 -89 -96 -89 -4 0 -5 26 -2 58 13 126
-45 305 -137 421 -21 28 -35 51 -29 51 6 0 34 -12 62 -26z m1432 -40 c9 -30
19 -63 21 -72 2 -9 9 -32 14 -51 11 -35 7 -57 -5 -27 -3 9 -10 13 -16 10 -5
-3 0 -13 11 -21 12 -8 21 -25 21 -37 0 -22 -2 -23 -40 -13 -24 7 -40 17 -41
27 -1 13 -2 13 -6 -1 -3 -13 -9 -14 -38 -5 -26 8 -35 17 -39 41 -4 16 -15 37
-27 45 -19 15 -19 16 11 45 l31 30 20 -25 c12 -14 18 -19 14 -12 -11 21 22 13
52 -12 l29 -25 -4 32 c-4 25 -6 28 -11 14 -6 -17 -8 -17 -20 -3 -7 9 -24 16
-37 16 -12 0 -26 4 -29 10 -6 9 53 89 66 90 3 0 13 -25 23 -56z m-1731 -33 c9
-16 30 -40 45 -53 l28 -24 -17 -49 c-21 -59 -24 -142 -7 -197 6 -22 32 -62 56
-89 46 -51 42 -57 -20 -35 -53 19 -114 71 -146 124 -24 41 -27 57 -26 125 1
58 9 98 29 153 15 41 30 74 34 74 4 0 14 -13 24 -29z m1591 -96 c23 -35 21
-48 -5 -35 -11 6 -25 9 -32 6 -7 -2 -5 -5 5 -5 22 -1 68 -57 69 -84 1 -16 2
-18 6 -5 2 9 -1 26 -7 37 -9 18 -8 21 7 21 28 0 63 -29 80 -64 14 -31 12 -8
-3 28 -6 17 -4 18 22 12 36 -9 42 -18 36 -57 -4 -25 -8 -30 -26 -26 -11 3 -37
8 -56 11 l-35 6 35 -13 c20 -8 45 -29 57 -48 12 -19 29 -41 38 -50 14 -15 14
-16 -2 -15 -56 6 -93 20 -94 35 -1 14 -2 15 -6 0 -7 -28 -73 1 -89 40 -7 17
-16 31 -19 31 -3 0 -1 -9 5 -19 17 -33 12 -41 -17 -25 -16 7 -41 14 -58 14
-26 1 -33 8 -51 46 l-22 46 37 -7 c20 -3 51 -15 68 -25 30 -18 32 -18 21 -1
-11 18 -79 41 -123 41 -38 0 -38 16 1 45 42 32 57 28 86 -25 10 -19 18 -27 18
-19 0 9 -9 28 -20 42 -19 24 -19 26 -3 30 13 3 10 5 -7 6 -25 2 -25 2 10 30
38 32 51 31 74 -4z m-1838 -109 c7 -36 22 -79 33 -95 29 -41 26 -44 -18 -21
-47 24 -77 61 -124 155 l-35 71 66 -22 66 -21 12 -67z m1114 85 c-5 -11 -10
-27 -10 -37 0 -9 -18 -36 -39 -59 -37 -40 -61 -95 -61 -139 0 -19 -16 -18 -75
4 -28 11 -32 22 -11 39 8 7 18 26 21 42 4 18 17 35 35 44 16 8 36 27 45 42 9
16 35 40 58 55 52 32 50 32 37 9z m-1213 -108 c12 -21 35 -51 52 -67 17 -17
31 -33 31 -37 0 -10 -58 -29 -86 -29 -19 0 -30 14 -63 79 l-38 80 26 4 c14 2
33 5 42 6 8 0 25 -16 36 -36z m2401 -56 c11 -12 28 -38 36 -57 9 -21 15 -28
16 -17 0 10 -5 27 -10 38 -22 41 34 9 60 -34 11 -18 20 -27 20 -22 0 6 -7 21
-16 33 -19 27 -9 28 33 2 18 -10 41 -36 52 -57 11 -21 20 -32 21 -25 0 7 -7
24 -16 37 -13 20 -13 25 -3 25 30 -1 79 -59 79 -95 0 -12 -4 -14 -19 -5 -11 5
-28 10 -37 10 -15 0 -14 -4 8 -27 14 -16 28 -36 31 -46 6 -15 3 -17 -16 -12
-15 5 -12 0 11 -14 51 -33 71 -102 27 -93 -28 5 -91 108 -71 116 6 2 -5 4 -24
5 -30 0 -32 -2 -13 -9 22 -9 35 -27 53 -74 9 -25 8 -26 -30 -26 -34 0 -40 3
-41 23 l-2 22 -4 -22 c-4 -19 -9 -21 -36 -18 l-32 5 30 -11 c17 -6 47 -10 67
-9 21 0 47 -4 58 -10 17 -9 50 -58 50 -75 0 -6 -83 39 -109 59 -7 6 -26 9 -40
8 -15 -2 -39 2 -54 7 -22 9 -27 17 -27 47 0 37 -27 94 -44 94 -5 0 -1 -8 8
-19 9 -10 20 -36 23 -56 l6 -38 -24 16 c-13 9 -28 17 -34 17 -5 0 5 -9 23 -20
44 -27 40 -40 -12 -40 -51 0 -60 14 -59 85 1 34 0 35 -4 8 -5 -38 -6 -38 -39
-17 -33 22 -39 13 -26 -38 13 -52 8 -62 -30 -54 -18 3 -27 2 -23 -4 3 -6 -1
-10 -10 -10 -12 0 -15 5 -10 18 16 40 23 72 14 67 -5 -4 -9 -15 -9 -25 0 -10
-5 -22 -11 -25 -15 -10 -49 24 -50 49 -1 18 -2 18 -6 3 -3 -13 -10 -16 -21
-12 -10 4 -34 9 -54 12 -34 5 -38 9 -38 35 0 16 -7 42 -15 58 -15 30 -15 30
13 30 36 0 74 -29 95 -72 9 -18 17 -26 17 -17 0 9 -8 27 -19 40 -10 13 -22 35
-26 48 -4 13 -10 19 -14 13 -3 -6 -22 -7 -46 -3 -33 5 -40 11 -45 36 -4 17
-12 40 -19 53 -25 47 59 8 89 -41 11 -18 20 -27 20 -21 0 5 -7 19 -15 30 -27
36 -12 45 36 21 14 -8 39 -14 56 -15 48 -1 69 -17 98 -74 22 -43 25 -47 20
-20 -4 19 -3 32 3 32 6 0 23 -15 38 -32 15 -18 25 -25 21 -15 -4 10 -7 22 -7
26 0 4 -15 13 -33 20 -28 11 -33 18 -31 40 2 14 1 18 -2 9 -7 -23 -13 -22 -48
6 l-28 23 33 12 c21 7 35 8 37 2 2 -5 9 -8 17 -5 7 3 21 -5 30 -18 l17 -23 -7
23 c-5 17 -2 22 12 22 28 -1 64 -24 79 -51 9 -16 13 -19 14 -8 0 8 -5 20 -12
27 -22 22 27 14 56 -9 21 -17 25 -17 19 -4 -5 15 -3 16 18 5 13 -7 30 -17 37
-23 14 -11 67 -17 54 -6 -15 13 -119 49 -159 55 -35 5 -43 11 -43 28 -1 11 -7
32 -15 46 -29 51 -7 69 33 27z m-693 -31 c26 -26 31 -52 40 -211 7 -121 29
-174 88 -213 37 -25 49 -27 131 -26 77 1 108 7 206 39 104 35 125 39 225 39
127 1 187 -15 257 -69 50 -38 99 -122 118 -204 17 -73 8 -249 -17 -321 -18
-53 -22 -56 -90 -90 -88 -43 -95 -50 -146 -125 -52 -77 -113 -141 -157 -165
-20 -10 -82 -30 -138 -44 -64 -16 -157 -52 -250 -95 -127 -59 -335 -131 -449
-156 -51 -10 -95 10 -133 60 -43 58 -86 86 -187 125 -155 59 -164 79 -134 291
29 199 105 477 129 472 16 -4 39 44 47 101 7 41 5 51 -10 62 -57 42 95 300
277 469 40 37 82 71 93 76 38 15 75 10 100 -15z m-1545 -50 c25 -7 65 -22 90
-34 25 -12 53 -22 63 -22 9 0 36 -12 58 -26 23 -14 56 -28 75 -31 19 -3 34 -9
34 -12 0 -4 -16 -22 -35 -41 -30 -29 -43 -34 -95 -38 -125 -9 -262 41 -398
147 l-63 49 83 -1 c49 -1 91 3 103 10 25 15 29 15 85 -1z m836 5 c5 -5 26 -14
47 -21 20 -6 37 -12 37 -13 0 -1 -7 -24 -15 -51 -8 -27 -15 -64 -15 -83 0 -31
-2 -33 -34 -33 -61 0 -140 20 -205 51 l-63 31 43 39 c26 22 55 38 69 39 14 0
46 11 70 24 54 28 54 28 66 17z m-969 -133 c91 -62 161 -88 258 -97 l80 -7
-65 -32 c-36 -18 -75 -32 -88 -32 -29 0 -166 87 -208 132 -17 18 -44 51 -60
73 -24 33 -25 37 -7 25 11 -8 52 -36 90 -62z m1925 41 c29 -15 58 -70 58 -108
0 -26 -3 -32 -16 -27 -9 3 -33 6 -54 6 -36 0 -38 2 -45 37 -4 20 -16 55 -27
76 l-20 40 42 -7 c24 -4 51 -11 62 -17z m-1334 -46 c63 -5 64 -5 57 -31 -16
-65 -84 -157 -150 -202 -51 -35 -153 -55 -235 -45 -58 7 -137 40 -182 78 l-27
22 92 0 c86 0 96 2 157 35 36 19 92 62 125 96 44 45 65 60 80 56 11 -3 49 -7
83 -9z m150 -8 c52 -34 145 -65 220 -72 42 -4 62 -10 62 -19 0 -19 17 -17 48
4 48 34 152 57 152 34 0 -11 -89 -66 -140 -86 -102 -40 -256 -28 -325 26 -41
32 -87 138 -59 138 2 0 21 -11 42 -25z m-28 -114 c0 -28 -53 -103 -106 -150
-27 -24 -82 -59 -122 -79 -67 -32 -78 -34 -145 -30 -89 6 -140 31 -219 106
-32 30 -56 57 -54 59 2 2 23 -10 47 -26 99 -69 250 -78 366 -21 74 36 124 91
166 178 l30 63 18 -41 c11 -23 19 -50 19 -59z m1148 17 c41 -28 82 -90 82
-124 0 -14 -8 -16 -46 -11 -77 8 -133 63 -141 141 l-6 46 34 -12 c19 -6 53
-24 77 -40z m121 -8 c41 -20 91 -73 91 -95 0 -10 -74 -35 -105 -35 -2 0 -9 16
-15 36 -7 20 -28 54 -47 75 l-35 39 36 0 c20 0 54 -9 75 -20z m718 -75 c20
-20 33 -41 30 -50 -4 -8 2 -16 14 -20 10 -4 26 -20 35 -37 13 -25 14 -32 2
-39 -9 -6 -7 -9 9 -9 22 0 83 -45 83 -61 0 -5 -7 -9 -15 -9 -8 0 -29 -13 -47
-29 l-33 -29 -19 61 c-10 34 -33 83 -52 110 -40 55 -39 54 -16 60 13 4 11 5
-5 6 -13 0 -23 7 -23 15 0 7 -9 25 -21 40 l-20 26 21 0 c12 0 38 -16 57 -35z
m577 -112 c32 -27 84 -84 115 -127 31 -43 67 -87 81 -97 14 -10 69 -30 123
-44 54 -15 130 -42 170 -61 105 -50 170 -43 266 30 39 29 69 33 78 10 4 -10
-24 -45 -88 -110 -52 -52 -102 -100 -112 -105 -10 -6 -52 -17 -95 -25 -87 -17
-128 -40 -49 -29 46 7 48 6 98 -40 55 -51 62 -52 156 -24 51 16 61 8 39 -27
-22 -32 -89 -63 -139 -64 -33 0 -46 7 -83 45 -40 42 -57 50 -94 45 -43 -5 -56
-109 -20 -167 22 -38 54 -48 113 -39 72 12 81 12 85 -6 4 -22 -67 -63 -136
-79 -40 -10 -60 -10 -92 0 -48 14 -59 34 -35 61 16 18 17 26 7 73 -10 45 -9
60 7 112 10 33 22 85 26 115 9 70 3 75 -136 136 -57 26 -141 70 -187 100 -109
71 -189 111 -258 129 -32 8 -59 16 -61 18 -6 7 55 116 93 169 20 26 43 48 53
48 9 0 43 -21 75 -47z m-113 -232 c31 -12 108 -54 170 -93 63 -39 159 -92 214
-116 55 -25 106 -50 114 -55 16 -13 9 -86 -16 -161 -11 -34 -14 -67 -9 -110 5
-55 3 -65 -22 -102 -15 -23 -35 -56 -44 -72 -9 -17 -34 -40 -56 -51 -25 -13
-42 -29 -46 -45 -9 -37 -53 -84 -84 -91 -18 -4 -34 -18 -47 -42 -23 -42 -66
-76 -116 -92 -20 -6 -49 -25 -65 -42 -46 -49 -95 -69 -166 -69 -53 0 -75 -6
-128 -34 -36 -19 -80 -37 -98 -41 -35 -7 -92 10 -92 28 0 5 20 67 44 137 66
189 70 224 50 393 -21 187 -31 237 -53 277 -17 32 -17 33 4 56 33 36 56 127
62 248 l6 108 161 -4 c136 -4 170 -8 217 -27z m-2285 -225 c20 -80 46 -114
100 -128 42 -12 45 -15 42 -43 -3 -25 -8 -30 -33 -33 -41 -4 -95 28 -117 69
-14 27 -18 54 -17 134 1 55 3 91 6 80 2 -11 11 -46 19 -79z m1814 -179 c22
-50 55 -288 54 -397 0 -64 -9 -99 -54 -232 -29 -86 -50 -164 -46 -173 9 -24
73 -47 110 -40 17 4 69 24 116 45 61 27 94 37 116 33 29 -4 32 -9 41 -58 9
-49 8 -54 -10 -59 -11 -3 -32 -2 -47 1 -44 8 -128 -15 -176 -48 -34 -25 -49
-30 -74 -25 -46 9 -84 40 -130 105 -52 75 -87 99 -158 112 -107 20 -177 93
-142 149 13 21 85 19 190 -4 96 -22 165 -17 202 14 35 28 16 48 -99 105 -55
28 -108 56 -117 64 -27 22 -56 86 -63 137 -5 42 -3 48 30 82 19 20 51 62 70
92 39 61 77 100 122 123 42 23 44 22 65 -26z m-1645 -304 c20 -17 75 -46 122
-65 46 -18 100 -46 118 -61 l34 -28 -22 -37 c-29 -48 -30 -178 -4 -266 23 -74
30 -69 11 9 -19 81 -18 185 2 235 9 22 18 40 21 40 2 0 15 -13 29 -29 30 -36
83 -55 134 -48 37 5 38 4 45 -31 8 -44 50 -117 78 -137 23 -16 25 -14 -77 -51
-58 -21 -65 -18 -92 39 -13 28 -21 41 -18 27 12 -48 55 -123 105 -183 56 -67
62 -100 17 -105 -19 -2 -38 7 -66 32 -98 89 -142 69 -186 -85 -9 -31 -25 -64
-36 -74 -20 -18 -21 -18 -40 1 -18 18 -82 194 -74 203 2 3 15 -6 29 -19 20
-19 25 -20 25 -7 0 19 -36 46 -112 81 -81 38 -119 99 -103 163 3 15 31 50 61
78 65 60 76 97 44 138 -31 39 -76 59 -131 59 -96 0 -159 -64 -159 -164 0 -70
-20 -123 -50 -133 -32 -10 -36 0 -20 53 26 90 24 122 -10 182 -59 105 -63 119
-46 145 14 22 43 35 109 49 15 4 27 11 27 16 0 6 -10 8 -22 6 -13 -3 -40 -8
-61 -11 -36 -6 -38 -5 -27 14 18 34 63 51 137 51 43 0 82 7 108 18 l40 18 12
-45 c8 -32 22 -56 48 -78z m1345 30 c1 -90 71 -172 186 -217 38 -15 78 -34 89
-42 19 -15 19 -16 2 -29 -30 -22 -98 -26 -167 -10 -36 9 -95 18 -132 21 -63 6
-68 5 -91 -20 l-25 -27 -16 43 c-9 24 -20 70 -25 103 l-9 60 -1 -51 c-1 -69
21 -140 66 -204 46 -66 90 -97 148 -105 62 -10 111 -43 169 -116 49 -61 118
-109 156 -109 9 0 40 16 70 35 50 32 60 35 133 35 l78 0 -33 -33 c-18 -19 -42
-49 -53 -68 -28 -48 -80 -64 -161 -51 -45 7 -114 36 -255 106 -221 110 -297
132 -414 122 -78 -7 -187 -40 -205 -62 -15 -18 -7 -18 28 0 15 7 38 16 52 19
25 6 25 6 22 -53 -3 -54 0 -66 38 -135 42 -76 46 -105 13 -105 -41 1 -240 141
-255 179 -7 18 -6 46 2 93 12 62 11 68 -8 100 -24 39 -58 58 -102 58 -44 0
-105 65 -124 131 -9 29 -13 56 -9 59 5 4 34 16 66 28 l57 21 0 -32 c1 -57 34
-113 82 -138 40 -22 56 -23 233 -25 197 -1 230 -7 272 -46 30 -28 47 -15 28
23 -34 64 -117 105 -279 135 -49 9 -101 20 -115 26 -40 15 -71 49 -71 77 0 23
14 32 136 89 84 39 175 73 237 89 56 13 117 33 137 43 48 26 50 25 50 -17z
m1392 -116 c18 -37 18 -40 2 -58 -23 -25 -36 -24 -64 6 -19 21 -29 24 -61 19
-31 -5 -39 -3 -49 16 -14 26 -16 22 51 65 l54 34 23 -22 c13 -12 33 -39 44
-60z m-273 -67 l11 -50 -44 -40 c-62 -57 -79 -98 -74 -176 l4 -64 -23 21 c-25
25 -53 98 -53 143 0 35 43 106 65 106 21 0 71 47 85 80 7 16 14 30 15 30 2 0
8 -22 14 -50z m177 -46 c10 -85 -4 -170 -40 -249 -62 -132 -110 -156 -176 -86
-75 79 -65 208 21 280 30 25 167 108 181 110 4 1 10 -24 14 -55z m75 -42 c41
-83 37 -190 -8 -259 -30 -48 -66 -71 -116 -76 -42 -5 -45 0 -18 34 60 77 95
205 88 318 -4 73 -4 74 14 50 11 -13 28 -44 40 -67z m-1961 56 c1 -58 62 -92
221 -124 201 -40 198 -49 -19 -49 -158 1 -192 3 -219 18 -43 23 -64 57 -70
112 -5 43 -5 44 28 53 52 15 59 14 59 -10z m2208 -35 c37 -92 30 -211 -17
-282 -14 -22 -78 -57 -87 -48 -2 2 4 19 13 38 22 43 30 193 13 243 -11 34 -10
39 17 70 15 19 30 35 33 35 3 1 16 -25 28 -56z m-108 -25 c59 -138 7 -319
-101 -348 -35 -10 -89 -5 -89 7 0 3 17 24 38 48 48 54 65 109 61 194 -3 60 -1
70 26 108 17 23 33 42 36 43 4 0 17 -24 29 -52z m-570 -175 c0 -5 13 -24 30
-43 16 -19 29 -38 30 -41 0 -4 -19 -9 -41 -13 -48 -8 -101 18 -159 78 l-34 36
22 23 c12 12 37 27 54 33 29 10 34 8 65 -27 18 -20 33 -41 33 -46z m843 58
l29 -6 -65 -76 c-41 -48 -78 -81 -98 -88 -18 -6 -34 -9 -37 -7 -2 3 5 25 17
48 11 24 24 65 27 91 l7 47 46 -1 c25 -1 59 -4 74 -8z m-1020 -166 c46 -19
178 -19 231 0 38 13 38 13 68 -20 16 -19 38 -37 49 -40 17 -6 18 -9 8 -22 -25
-29 -102 -61 -137 -56 -19 3 -44 0 -57 -7 -30 -16 -64 -7 -99 25 -15 14 -32
23 -37 20 -18 -12 -78 47 -103 101 -14 30 -26 57 -26 60 0 3 15 -6 33 -20 18
-14 50 -32 70 -41z m-30 -91 c17 -16 41 -29 52 -29 14 0 21 -8 23 -27 3 -22
-1 -27 -25 -31 l-28 -4 27 -2 c15 0 33 6 41 13 23 24 69 6 79 -29 4 -16 5 -31
3 -34 -3 -2 -30 1 -61 8 -96 22 -169 109 -189 226 l-7 40 26 -51 c15 -28 41
-64 59 -80z m1097 41 c-39 -41 -110 -82 -192 -109 -107 -36 -134 -34 -180 11
-21 20 -38 42 -38 48 1 18 71 55 105 55 19 0 36 4 39 9 4 5 70 10 148 10 l142
2 -24 -26z m-465 -45 c22 0 34 -7 46 -28 8 -15 57 -62 107 -104 50 -43 87 -80
82 -83 -16 -10 -143 7 -197 27 -28 10 -72 34 -97 54 -43 33 -102 106 -108 135
-4 19 79 28 112 12 14 -7 39 -13 55 -13z m-167 -33 c58 -102 172 -181 282
-194 70 -8 71 -19 0 -26 -117 -13 -223 24 -290 100 -37 42 -40 51 -40 103 0
48 5 70 16 70 1 0 15 -24 32 -53z"/>
<path d="M3978 2634 c30 -21 28 -34 -5 -34 -16 0 -40 -6 -54 -14 -23 -12 -29
-12 -43 0 -9 8 -11 9 -6 2 7 -8 1 -15 -20 -25 -17 -6 -33 -12 -37 -12 -3 1 -9
-4 -13 -11 -4 -6 9 -27 29 -47 34 -34 35 -36 16 -44 -17 -7 -16 -8 7 -8 20 -1
26 3 22 13 -7 19 34 46 70 46 20 0 39 -11 62 -35 34 -36 46 -43 42 -24 -2 6
13 19 32 30 19 10 27 19 18 19 -8 0 -26 -8 -38 -18 -21 -17 -23 -17 -82 41
-33 32 -56 62 -53 65 4 4 34 7 67 7 50 0 63 -4 78 -22 18 -22 40 -31 40 -15
-1 10 -41 38 -69 47 -24 7 -24 8 -5 22 19 15 19 15 -2 9 -11 -3 -29 0 -40 9
-10 8 -23 15 -29 15 -5 0 1 -7 13 -16z"/>
<path d="M3325 1829 c-82 -13 -121 -47 -132 -114 -7 -46 10 -65 59 -65 50 0
94 23 112 58 14 28 28 133 17 131 -3 -1 -28 -5 -56 -10z"/>
<path d="M3910 2118 c0 -5 12 -8 28 -9 26 -1 25 -1 -8 -12 -34 -10 -32 -11 45
-17 102 -9 169 -42 303 -149 54 -44 126 -96 160 -115 83 -49 118 -80 148 -132
49 -83 20 -184 -53 -184 -20 0 -206 192 -249 258 -18 28 -49 76 -68 105 -19
28 -56 72 -82 97 l-48 45 48 -55 c26 -30 77 -99 113 -155 37 -55 91 -127 122
-161 31 -33 73 -79 94 -102 30 -33 46 -42 71 -42 50 0 96 61 96 126 0 63 -75
151 -180 211 -30 18 -100 68 -155 112 -109 88 -210 145 -276 156 -26 5 -37 10
-29 15 7 5 -6 9 -34 11 -25 2 -46 1 -46 -3z"/>
<path d="M3926 2022 c5 -5 29 -14 54 -21 60 -18 164 -123 260 -266 41 -60 97
-139 126 -175 90 -113 104 -165 61 -216 -33 -38 -50 -27 -70 42 -9 33 -23 68
-32 79 -15 19 -15 18 -2 -10 8 -16 20 -52 26 -80 7 -27 17 -55 23 -62 28 -34
80 6 92 72 9 47 -17 103 -83 180 -29 33 -81 104 -117 158 -121 181 -195 262
-268 292 -38 16 -86 21 -70 7z"/>
<path d="M3944 1982 c6 -10 -2 -11 -33 -6 -51 8 -52 -2 -7 -70 44 -67 97 -204
147 -379 37 -133 79 -339 79 -392 0 -30 -37 -72 -71 -80 -47 -11 -55 10 -63
157 -11 193 -26 267 -20 98 9 -252 14 -270 69 -270 50 0 95 41 95 88 0 98 -75
419 -136 579 -13 36 -24 70 -23 77 1 24 110 -267 149 -399 63 -216 74 -234
123 -216 55 21 88 95 76 171 -12 74 -65 179 -183 360 -60 91 -117 178 -128
193 -11 16 -18 30 -16 33 8 8 65 -62 111 -136 26 -41 56 -86 68 -100 l21 -25
-15 26 c-39 66 -132 204 -147 218 -44 42 -72 65 -65 52 5 -9 3 -12 -6 -9 -8 3
-14 10 -14 16 0 5 -4 14 -9 19 -5 5 -6 3 -2 -5z m20 -50 c28 -25 243 -355 291
-448 24 -44 48 -105 55 -136 11 -50 11 -60 -6 -94 -11 -21 -31 -47 -47 -58
-24 -18 -29 -19 -43 -5 -8 9 -39 92 -67 185 -74 236 -171 474 -218 535 -22 26
-39 51 -39 53 0 9 54 -15 74 -32z"/>
<path d="M3860 1863 c0 -6 5 -24 10 -40 l10 -28 -19 25 c-19 24 -21 24 -38 7
-23 -22 -22 -127 1 -235 38 -176 27 -318 -39 -517 -19 -54 -31 -103 -29 -107
9 -14 24 -9 18 6 -3 8 8 56 25 108 62 188 76 341 46 478 -8 36 -17 103 -20
150 -6 83 2 119 23 106 15 -9 42 -94 57 -179 12 -65 13 -67 14 -27 0 25 -8 75
-18 112 -9 37 -13 65 -9 62 12 -8 10 -1 -12 47 -11 24 -20 39 -20 32z"/>
<path d="M4615 5315 c-43 -42 -30 -140 22 -164 43 -20 92 -14 118 15 33 35 39
58 25 99 -24 73 -115 101 -165 50z m111 -10 c12 -8 27 -28 34 -45 11 -28 11
-34 -7 -58 -24 -33 -74 -40 -109 -17 -33 21 -33 73 1 109 27 29 51 33 81 11z"/>
<path d="M1535 3627 c-19 -16 -27 -33 -28 -59 -1 -47 17 -68 59 -68 69 0 99
76 49 125 -30 31 -47 31 -80 2z"/>
<path d="M5282 2447 c-26 -28 -30 -88 -6 -111 38 -39 114 1 114 59 0 24 -7 39
-26 54 -34 27 -55 26 -82 -2z"/>
<path d="M1640 1720 c-30 -56 18 -130 74 -116 62 15 89 89 44 120 -34 24 -105
21 -118 -4z"/>
<path d="M3133 383 c8 -7 -47 -50 -75 -59 -19 -6 -26 -44 -8 -44 6 0 10 -11
10 -23 0 -36 30 -57 81 -57 59 0 75 14 92 81 l14 56 -24 -3 c-17 -2 -35 7 -54
27 -15 16 -31 29 -35 29 -4 0 -4 -3 -1 -7z"/>
</g>
</svg>
